<svg xmlns="http://www.w3.org/2000/svg" viewBox="0 0 800 250">
  <defs>
    <style>
      /* ========== COLORS ========== */
      :root {
        --robot-white: #f8f9fa;
        --robot-light: #e9ecef;
        --robot-gray: #dee2e6;
        --robot-dark: #495057;
        --eye-blue: #00d4ff;
        --cheek-pink: #ffb3c1;
        --heart-pink: #ff6b9d;
        --ground-dark: #1a1a2e;
        --accent-cyan: #00d9ff;
        --accent-purple: #8b5cf6;
      }

      /* ========== GROUND ========== */
      .ground {
        fill: #1a1a2e;
      }
      .ground-surface {
        fill: #252542;
      }
      .ground-line {
        stroke: #00d9ff;
        stroke-width: 1;
        opacity: 0.2;
      }

      /* ========== ROBOT STYLES ========== */
      .robot-body-white { fill: #f8f9fa; }
      .robot-body-light { fill: #e9ecef; }
      .robot-body-gray { fill: #dee2e6; }
      .robot-shadow { fill: #000; opacity: 0.15; }
      .robot-eye { fill: #00d4ff; }
      .robot-eye-shine { fill: #fff; }
      .robot-cheek { fill: #ffb3c1; opacity: 0.7; }
      .robot-mouth { stroke: #495057; fill: none; stroke-linecap: round; }
      .robot-chest-light { fill: #00d9ff; }
      .heart { fill: #ff6b9d; }
      .sparkle { fill: #ffd700; }
      .sweat { fill: #87ceeb; }

      /* ========== TEXT ========== */
      .status-text {
        font-family: 'Segoe UI', 'Helvetica', sans-serif;
        font-size: 13px;
        fill: #00d9ff;
      }
      .progress-bg { fill: #252542; }
      .progress-fill { fill: url(#progressGradient); }
      .label-text {
        font-family: 'Segoe UI', 'Helvetica', sans-serif;
        font-size: 11px;
        fill: #888;
      }

      /* ========== ROBOT WALKING ANIMATION ========== */
      .robot-container {
        animation: robotWalkCycle 10s linear infinite;
      }

      @keyframes robotWalkCycle {
        0% { transform: translateX(0px); }
        /* Walk forward wobbling */
        5% { transform: translateX(25px) rotate(2deg); }
        10% { transform: translateX(50px) rotate(-2deg); }
        15% { transform: translateX(75px) rotate(2deg); }
        20% { transform: translateX(100px) rotate(-2deg); }
        25% { transform: translateX(125px) rotate(1deg); }
        /* Trip and fall! */
        28% { transform: translateX(135px) rotate(5deg); }
        30% { transform: translateX(140px) rotate(15deg); }
        32% { transform: translateX(145px) rotate(35deg); }
        35% { transform: translateX(150px) rotate(60deg); }
        /* Lying down moment */
        40% { transform: translateX(150px) rotate(60deg); }
        /* Getting up with effort */
        45% { transform: translateX(150px) rotate(40deg); }
        48% { transform: translateX(152px) rotate(20deg); }
        52% { transform: translateX(155px) rotate(5deg); }
        55% { transform: translateX(160px) rotate(0deg); }
        /* Walk more confidently! */
        60% { transform: translateX(185px) rotate(1deg); }
        65% { transform: translateX(215px) rotate(-1deg); }
        70% { transform: translateX(250px) rotate(1deg); }
        75% { transform: translateX(290px) rotate(-1deg); }
        80% { transform: translateX(330px) rotate(0.5deg); }
        85% { transform: translateX(370px) rotate(-0.5deg); }
        90% { transform: translateX(410px) rotate(0deg); }
        95% { transform: translateX(450px) rotate(0deg); }
        100% { transform: translateX(0px) rotate(0deg); }
      }

      /* Left leg walking */
      .left-leg {
        animation: leftLegWalk 0.6s ease-in-out infinite;
        transform-origin: 50% 0%;
      }
      @keyframes leftLegWalk {
        0%, 100% { transform: rotate(15deg); }
        50% { transform: rotate(-15deg); }
      }

      /* Right leg walking (opposite) */
      .right-leg {
        animation: rightLegWalk 0.6s ease-in-out infinite;
        transform-origin: 50% 0%;
      }
      @keyframes rightLegWalk {
        0%, 100% { transform: rotate(-15deg); }
        50% { transform: rotate(15deg); }
      }

      /* Arm swing */
      .left-arm {
        animation: leftArmSwing 0.6s ease-in-out infinite;
        transform-origin: 50% 0%;
      }
      @keyframes leftArmSwing {
        0%, 100% { transform: rotate(-10deg); }
        50% { transform: rotate(10deg); }
      }

      .right-arm {
        animation: rightArmSwing 0.6s ease-in-out infinite;
        transform-origin: 50% 0%;
      }
      @keyframes rightArmSwing {
        0%, 100% { transform: rotate(10deg); }
        50% { transform: rotate(-10deg); }
      }

      /* Eye blink */
      .robot-eye {
        animation: eyeBlink 3s ease-in-out infinite;
        transform-origin: center;
      }
      @keyframes eyeBlink {
        0%, 45%, 55%, 100% { transform: scaleY(1); }
        50% { transform: scaleY(0.1); }
      }

      /* Antenna wiggle */
      .antenna {
        animation: antennaWiggle 1.5s ease-in-out infinite;
        transform-origin: bottom center;
      }
      @keyframes antennaWiggle {
        0%, 100% { transform: rotate(-5deg); }
        50% { transform: rotate(5deg); }
      }

      /* Chest light pulse */
      .robot-chest-light {
        animation: chestPulse 1.2s ease-in-out infinite;
      }
      @keyframes chestPulse {
        0%, 100% { opacity: 1; }
        50% { opacity: 0.5; }
      }

      /* Hearts floating */
      .heart1 { animation: heartFloat 2.5s ease-out infinite; }
      .heart2 { animation: heartFloat 2.5s ease-out infinite 0.8s; }
      .heart3 { animation: heartFloat 2.5s ease-out infinite 1.6s; }
      @keyframes heartFloat {
        0% { opacity: 0; transform: translateY(0) scale(0); }
        20% { opacity: 1; transform: translateY(-5px) scale(1); }
        80% { opacity: 0.8; transform: translateY(-25px) scale(0.9); }
        100% { opacity: 0; transform: translateY(-35px) scale(0.5); }
      }

      /* Sweat drop when falling */
      .sweat-drop {
        animation: sweatDrop 10s ease-in-out infinite;
      }
      @keyframes sweatDrop {
        0%, 25%, 55%, 100% { opacity: 0; transform: translateY(0); }
        30%, 50% { opacity: 1; transform: translateY(5px); }
      }

      /* Sparkle effect */
      .sparkle1 { animation: sparkleAnim 2s ease-in-out infinite; }
      .sparkle2 { animation: sparkleAnim 2s ease-in-out infinite 1s; }
      @keyframes sparkleAnim {
        0%, 100% { opacity: 0; transform: scale(0) rotate(0deg); }
        50% { opacity: 1; transform: scale(1) rotate(180deg); }
      }

      /* Progress bar animation */
      .progress-fill {
        animation: progressGrow 10s ease-out infinite;
      }
      @keyframes progressGrow {
        0% { width: 30px; }
        35% { width: 60px; }
        55% { width: 100px; }
        100% { width: 160px; }
      }

      /* Status text animation */
      .status-learning { animation: fadeInOut 10s infinite; }
      @keyframes fadeInOut {
        0%, 30% { opacity: 1; }
        35%, 50% { opacity: 0; }
        55%, 100% { opacity: 1; }
      }

      /* Goal flag wave */
      .flag {
        animation: flagWave 1s ease-in-out infinite;
        transform-origin: left center;
      }
      @keyframes flagWave {
        0%, 100% { transform: skewX(0deg); }
        50% { transform: skewX(-3deg); }
      }

      /* Footprints appear */
      .footprint {
        opacity: 0.3;
      }
    </style>

    <!-- Gradient for progress bar -->
    <linearGradient id="progressGradient" x1="0%" y1="0%" x2="100%" y2="0%">
      <stop offset="0%" style="stop-color:#00d9ff"/>
      <stop offset="100%" style="stop-color:#8b5cf6"/>
    </linearGradient>

    <!-- Gradient for robot head -->
    <radialGradient id="headGradient" cx="30%" cy="30%">
      <stop offset="0%" style="stop-color:#ffffff"/>
      <stop offset="100%" style="stop-color:#e9ecef"/>
    </radialGradient>
  </defs>

  <!-- ========== BACKGROUND ========== -->
  <rect width="800" height="250" fill="transparent"/>

  <!-- ========== GROUND ========== -->
  <rect class="ground" x="0" y="195" width="800" height="55"/>
  <rect class="ground-surface" x="0" y="195" width="800" height="8" rx="0"/>
  <line class="ground-line" x1="0" y1="210" x2="800" y2="210"/>
  <line class="ground-line" x1="0" y1="225" x2="800" y2="225"/>
  <line class="ground-line" x1="0" y1="240" x2="800" y2="240"/>

  <!-- ========== FOOTPRINTS ========== -->
  <g class="footprint" fill="#00d9ff">
    <ellipse cx="130" cy="193" rx="6" ry="3"/>
    <ellipse cx="155" cy="193" rx="6" ry="3"/>
    <ellipse cx="185" cy="193" rx="6" ry="3"/>
    <ellipse cx="220" cy="193" rx="6" ry="3"/>
    <ellipse cx="260" cy="193" rx="6" ry="3"/>
    <ellipse cx="305" cy="193" rx="6" ry="3"/>
    <ellipse cx="355" cy="193" rx="6" ry="3"/>
    <ellipse cx="410" cy="193" rx="6" ry="3"/>
    <ellipse cx="470" cy="193" rx="6" ry="3"/>
  </g>

  <!-- ========== STATUS DISPLAY ========== -->
  <g transform="translate(550, 35)">
    <text class="status-text" x="0" y="0" font-weight="bold">🤖 AI学習ステータス</text>

    <!-- Progress bar -->
    <rect class="progress-bg" x="0" y="12" width="180" height="18" rx="9"/>
    <rect class="progress-fill" x="3" y="15" width="30" height="12" rx="6"/>

    <!-- Status messages -->
    <text class="label-text status-learning" x="0" y="50">
      <tspan x="0" dy="0">📊 歩行訓練中...</tspan>
      <tspan x="0" dy="16">🎯 目標: ゴールまで歩く</tspan>
      <tspan x="0" dy="16">💪 ころんでも立ち上がる！</tspan>
    </text>
  </g>

  <!-- ========== GOAL FLAG ========== -->
  <g transform="translate(520, 125)">
    <rect x="0" y="0" width="4" height="70" fill="#666"/>
    <g class="flag">
      <polygon points="6,5 50,18 6,32" fill="#ff6b9d"/>
      <text x="15" y="22" font-size="10" fill="#fff" font-family="Arial" font-weight="bold">GOAL!</text>
    </g>
  </g>

  <!-- ========== PEPPER-STYLE ROBOT ========== -->
  <g class="robot-container" transform="translate(60, 70)">

    <!-- Shadow on ground -->
    <ellipse cx="30" cy="125" rx="22" ry="6" class="robot-shadow"/>

    <!-- ===== LEGS ===== -->
    <!-- Left leg -->
    <g class="left-leg" transform="translate(15, 95)">
      <rect x="0" y="0" width="14" height="28" rx="7" class="robot-body-light"/>
      <ellipse cx="7" cy="28" rx="9" ry="5" class="robot-body-gray"/>
    </g>

    <!-- Right leg -->
    <g class="right-leg" transform="translate(31, 95)">
      <rect x="0" y="0" width="14" height="28" rx="7" class="robot-body-light"/>
      <ellipse cx="7" cy="28" rx="9" ry="5" class="robot-body-gray"/>
    </g>

    <!-- ===== BODY ===== -->
    <!-- Main body (torso) -->
    <ellipse cx="30" cy="75" rx="22" ry="28" class="robot-body-white"/>
    <ellipse cx="30" cy="70" rx="18" ry="22" class="robot-body-light"/>

    <!-- Chest light/heart -->
    <circle class="robot-chest-light" cx="30" cy="70" r="6"/>

    <!-- ===== ARMS ===== -->
    <!-- Left arm -->
    <g class="left-arm" transform="translate(-2, 55)">
      <rect x="0" y="0" width="10" height="25" rx="5" class="robot-body-light"/>
      <circle cx="5" cy="25" r="6" class="robot-body-gray"/>
    </g>

    <!-- Right arm -->
    <g class="right-arm" transform="translate(52, 55)">
      <rect x="0" y="0" width="10" height="25" rx="5" class="robot-body-light"/>
      <circle cx="5" cy="25" r="6" class="robot-body-gray"/>
    </g>

    <!-- ===== HEAD ===== -->
    <!-- Neck -->
    <rect x="24" y="40" width="12" height="12" rx="4" class="robot-body-light"/>

    <!-- Head (Pepper-style round) -->
    <ellipse cx="30" cy="22" rx="26" ry="24" fill="url(#headGradient)"/>

    <!-- Antenna -->
    <g class="antenna" transform="translate(26, -8)">
      <rect x="0" y="0" width="3" height="10" rx="1.5" fill="#dee2e6"/>
      <circle cx="1.5" cy="-2" r="4" fill="#00d9ff"/>
    </g>

    <!-- ===== FACE ===== -->
    <!-- Eyes -->
    <g class="robot-eye">
      <ellipse cx="20" cy="18" rx="6" ry="7" fill="#1a1a2e"/>
      <ellipse cx="20" cy="17" rx="4" ry="5" class="robot-eye"/>
      <circle class="robot-eye-shine" cx="22" cy="15" r="2"/>
    </g>
    <g class="robot-eye">
      <ellipse cx="40" cy="18" rx="6" ry="7" fill="#1a1a2e"/>
      <ellipse cx="40" cy="17" rx="4" ry="5" class="robot-eye"/>
      <circle class="robot-eye-shine" cx="42" cy="15" r="2"/>
    </g>

    <!-- Cheeks (blush) -->
    <ellipse class="robot-cheek" cx="10" cy="26" rx="5" ry="3"/>
    <ellipse class="robot-cheek" cx="50" cy="26" rx="5" ry="3"/>

    <!-- Mouth (happy smile) -->
    <path class="robot-mouth" d="M 22 32 Q 30 40 38 32" stroke-width="2.5"/>

    <!-- ===== EFFECTS ===== -->
    <!-- Sweat drop (appears when falling) -->
    <g class="sweat-drop" transform="translate(48, 5)">
      <path class="sweat" d="M 0 0 Q 3 4 0 8 Q -3 4 0 0"/>
    </g>

    <!-- Hearts -->
    <g class="heart1" transform="translate(55, -5)">
      <path class="heart" d="M 0 3 C 0 0, 4 0, 4 3 C 4 0, 8 0, 8 3 C 8 7, 4 10, 4 12 C 4 10, 0 7, 0 3"/>
    </g>
    <g class="heart2" transform="translate(-10, 10)">
      <path class="heart" d="M 0 2 C 0 0, 3 0, 3 2 C 3 0, 6 0, 6 2 C 6 5, 3 7, 3 8 C 3 7, 0 5, 0 2" transform="scale(0.7)"/>
    </g>
    <g class="heart3" transform="translate(60, 20)">
      <path class="heart" d="M 0 2 C 0 0, 3 0, 3 2 C 3 0, 6 0, 6 2 C 6 5, 3 7, 3 8 C 3 7, 0 5, 0 2" transform="scale(0.6)"/>
    </g>

    <!-- Sparkles -->
    <g class="sparkle1" transform="translate(-15, 0)">
      <polygon class="sparkle" points="4,0 5,3 8,4 5,5 4,8 3,5 0,4 3,3"/>
    </g>
    <g class="sparkle2" transform="translate(65, 40)">
      <polygon class="sparkle" points="3,0 4,2 6,3 4,4 3,6 2,4 0,3 2,2"/>
    </g>

  </g>

  <!-- ========== DECORATIVE ELEMENTS ========== -->
  <!-- Small stars in background -->
  <g fill="#00d9ff" opacity="0.3">
    <circle cx="100" cy="30" r="1.5"/>
    <circle cx="200" cy="50" r="1"/>
    <circle cx="320" cy="25" r="1.5"/>
    <circle cx="450" cy="45" r="1"/>
    <circle cx="680" cy="35" r="1.5"/>
    <circle cx="750" cy="55" r="1"/>
  </g>

  <!-- ========== MESSAGE ========== -->
  <text x="400" y="235" text-anchor="middle" class="label-text" font-size="10">
    ✨ ころんでも諦めない！一歩ずつ成長するAIロボット ✨
  </text>

</svg>